<svg width="18" height="22" viewBox="0 0 18 22" fill="none" xmlns="http://www.w3.org/2000/svg">
<g id="apple">
<path id="Vector" d="M12.039 3.94425C12.8229 3.07897 13.2615 1.89105 13.1922 0.679565C12.1078 0.679565 10.8506 1.31374 10.0546 2.24835C9.43155 3.02119 8.76271 4.23268 9.00492 5.4437C10.124 5.58237 11.3354 4.87886 12.039 3.94425Z" fill="#ACB5BD"/>
<path id="Union" d="M16.9337 7.78362C16.7154 7.91389 14.654 9.14357 14.654 11.7659C14.6591 11.9286 14.6757 12.083 14.6947 12.2351H14.6938C15.0354 14.9654 17.4357 15.9416 17.4791 15.9416C17.471 15.952 17.453 16.0053 17.4229 16.0944C17.2839 16.5064 16.8866 17.6833 16.0143 18.9063C15.1726 20.1876 14.238 21.4795 12.819 21.4795C12.1683 21.4795 11.7187 21.281 11.2531 21.0754C10.7528 20.8545 10.2339 20.6253 9.4272 20.6253C8.53506 20.6253 7.98423 20.8683 7.47011 21.0951C7.02023 21.2935 6.59847 21.4795 6.00074 21.4795C4.58171 21.4795 3.57823 20.1183 2.69029 18.849C1.56109 17.2225 0.603822 14.6899 0.53125 12.2351C0.530584 12.21 0.528637 12.1848 0.526694 12.1595C0.524588 12.1321 0.52248 12.1046 0.522 12.0775C0.498426 10.7509 0.752649 9.44695 1.39838 8.33946C2.30942 6.79333 3.93644 5.74362 5.71277 5.70895C6.4898 5.68283 7.21803 5.99106 7.85448 6.26045C8.333 6.46299 8.75964 6.64357 9.11612 6.64357C9.4404 6.64357 9.87961 6.48843 10.4002 6.30457C11.1573 6.03715 12.0865 5.70895 13.0843 5.70895C13.8109 5.70941 15.7495 5.92851 16.9494 7.77416C16.9464 7.77607 16.9411 7.77921 16.9337 7.78362Z" fill="#ACB5BD"/>
</g>
</svg>
