<svg width="22" height="23" viewBox="0 0 22 23" fill="none" xmlns="http://www.w3.org/2000/svg">
<path id="Icon" d="M11 5.47958V21.4796M11 5.47958H7.46429C6.94332 5.47958 6.4437 5.26887 6.07533 4.8938C5.70695 4.51872 5.5 4.01002 5.5 3.47958C5.5 2.94915 5.70695 2.44044 6.07533 2.06537C6.4437 1.6903 6.94332 1.47958 7.46429 1.47958C10.2143 1.47958 11 5.47958 11 5.47958ZM11 5.47958H14.5357C15.0567 5.47958 15.5563 5.26887 15.9247 4.8938C16.293 4.51872 16.5 4.01002 16.5 3.47958C16.5 2.94915 16.293 2.44044 15.9247 2.06537C15.5563 1.6903 15.0567 1.47958 14.5357 1.47958C11.7857 1.47958 11 5.47958 11 5.47958ZM19 10.4796V18.2796C19 19.3997 19 19.9597 18.782 20.3876C18.5903 20.7639 18.2843 21.0698 17.908 21.2616C17.4802 21.4796 16.9201 21.4796 15.8 21.4796L6.2 21.4796C5.07989 21.4796 4.51984 21.4796 4.09202 21.2616C3.71569 21.0698 3.40973 20.7639 3.21799 20.3876C3 19.9597 3 19.3997 3 18.2796V10.4796M1 7.07958L1 8.87958C1 9.43964 1 9.71966 1.10899 9.93357C1.20487 10.1217 1.35785 10.2747 1.54601 10.3706C1.75992 10.4796 2.03995 10.4796 2.6 10.4796L19.4 10.4796C19.9601 10.4796 20.2401 10.4796 20.454 10.3706C20.6422 10.2747 20.7951 10.1217 20.891 9.93357C21 9.71966 21 9.43964 21 8.87958V7.07958C21 6.51953 21 6.23951 20.891 6.02559C20.7951 5.83743 20.6422 5.68445 20.454 5.58858C20.2401 5.47958 19.9601 5.47958 19.4 5.47958L2.6 5.47958C2.03995 5.47958 1.75992 5.47958 1.54601 5.58858C1.35785 5.68445 1.20487 5.83743 1.10899 6.02559C1 6.23951 1 6.51953 1 7.07958Z" stroke="#086FDE" stroke-width="2" stroke-linecap="round" stroke-linejoin="round"/>
</svg>
