<svg width="17" height="16" viewBox="0 0 17 16" fill="none" xmlns="http://www.w3.org/2000/svg">
<g id="Icon">
<path d="M5.06522 14.4268L8.34477 12.7022C8.44695 12.6484 8.49804 12.6216 8.55187 12.611C8.57603 12.6063 8.60053 12.6039 8.62504 12.604V1.20001C8.56953 1.19987 8.514 1.21203 8.46264 1.23652C8.34531 1.29246 8.25888 1.46757 8.08601 1.81777L6.446 5.14025C6.39497 5.24363 6.36945 5.29533 6.33216 5.33546C6.29914 5.371 6.25955 5.39979 6.21556 5.42025C6.16588 5.44335 6.10884 5.45169 5.99476 5.46836L2.32631 6.00456C1.94 6.06103 1.74685 6.08926 1.65746 6.18361C1.57969 6.2657 1.54311 6.37851 1.55792 6.49061C1.57493 6.61947 1.71477 6.75567 1.99444 7.02807L4.64796 9.6126C4.73068 9.69316 4.77204 9.73345 4.79873 9.78138C4.82236 9.82382 4.83752 9.87044 4.84336 9.91866C4.84997 9.97312 4.84021 10.03 4.82069 10.1438L4.19458 13.7944C4.12854 14.1794 4.09552 14.3719 4.15758 14.4862C4.21157 14.5856 4.30753 14.6553 4.41875 14.6759C4.54658 14.6996 4.71946 14.6087 5.06522 14.4268Z" fill="#FFBB00"/>
<path d="M8.62504 12.604C8.64887 12.604 8.6727 12.6064 8.6962 12.611C8.75003 12.6216 8.80112 12.6484 8.90331 12.7022L12.1829 14.4268C12.5286 14.6087 12.7015 14.6996 12.8293 14.6759C12.9405 14.6553 13.0365 14.5856 13.0905 14.4862C13.1525 14.3719 13.1195 14.1794 13.0535 13.7944L12.4274 10.1438C12.4079 10.03 12.3981 9.97312 12.4047 9.91866C12.4106 9.87044 12.4257 9.82382 12.4493 9.78138C12.476 9.73345 12.5174 9.69316 12.6001 9.6126L15.2536 7.02807C15.5333 6.75567 15.6731 6.61947 15.6902 6.49061C15.705 6.37851 15.6684 6.2657 15.5906 6.18361C15.5012 6.08926 15.3081 6.06103 14.9218 6.00456L11.2533 5.46836C11.1392 5.45169 11.0822 5.44335 11.0325 5.42025C10.9885 5.39979 10.9489 5.371 10.9159 5.33546C10.8786 5.29533 10.8531 5.24363 10.8021 5.14025L9.16206 1.81777C8.9892 1.46757 8.90276 1.29246 8.78543 1.23652C8.73469 1.21233 8.67988 1.20016 8.62504 1.20001M8.62504 12.604C8.60053 12.6039 8.57603 12.6063 8.55187 12.611C8.49804 12.6216 8.44695 12.6484 8.34477 12.7022L5.06522 14.4268C4.71946 14.6087 4.54658 14.6996 4.41875 14.6759C4.30753 14.6553 4.21157 14.5856 4.15758 14.4862C4.09552 14.3719 4.12854 14.1794 4.19458 13.7944L4.82069 10.1438C4.84021 10.03 4.84997 9.97312 4.84336 9.91866C4.83752 9.87044 4.82236 9.82382 4.79873 9.78138C4.77204 9.73345 4.73068 9.69316 4.64796 9.6126L1.99444 7.02807C1.71477 6.75567 1.57493 6.61947 1.55792 6.49061C1.54311 6.37851 1.57969 6.2657 1.65746 6.18361C1.74685 6.08926 1.94 6.06103 2.32631 6.00456L5.99476 5.46836C6.10884 5.45169 6.16588 5.44335 6.21556 5.42025C6.25955 5.39979 6.29914 5.371 6.33216 5.33546C6.36945 5.29533 6.39497 5.24363 6.446 5.14025L8.08601 1.81777C8.25888 1.46757 8.34531 1.29246 8.46264 1.23652C8.514 1.21203 8.56953 1.19987 8.62504 1.20001M8.62504 12.604V1.20001" stroke="#FFBB00" stroke-width="1.5" stroke-linecap="round" stroke-linejoin="round"/>
</g>
</svg>
