<svg width="16" height="16" viewBox="0 0 16 16" fill="none" xmlns="http://www.w3.org/2000/svg">
<path id="Icon" d="M7.53132 1.61776C7.70419 1.26755 7.79062 1.09245 7.90796 1.03651C8.01005 0.987831 8.12865 0.987831 8.23074 1.03651C8.34808 1.09245 8.43451 1.26755 8.60737 1.61776L10.2474 4.94023C10.2984 5.04362 10.3239 5.09532 10.3612 5.13545C10.3942 5.17099 10.4338 5.19978 10.4778 5.22024C10.5275 5.24334 10.5845 5.25168 10.6986 5.26835L14.3671 5.80455C14.7534 5.86101 14.9465 5.88925 15.0359 5.9836C15.1137 6.06569 15.1503 6.17849 15.1355 6.2906C15.1185 6.41946 14.9786 6.55566 14.6989 6.82806L12.0454 9.41258C11.9627 9.49315 11.9213 9.53344 11.8947 9.58137C11.871 9.62381 11.8559 9.67043 11.85 9.71865C11.8434 9.77311 11.8532 9.83002 11.8727 9.94382L12.4988 13.5944C12.5648 13.9794 12.5979 14.1719 12.5358 14.2861C12.4818 14.3855 12.3858 14.4553 12.2746 14.4759C12.1468 14.4996 11.9739 14.4087 11.6282 14.2268L8.34862 12.5021C8.24644 12.4484 8.19534 12.4215 8.14152 12.411C8.09386 12.4016 8.04484 12.4016 7.99718 12.411C7.94335 12.4215 7.89226 12.4484 7.79008 12.5021L4.51053 14.2268C4.16477 14.4087 3.99189 14.4996 3.86406 14.4759C3.75285 14.4553 3.65688 14.3855 3.60289 14.2861C3.54084 14.1719 3.57385 13.9794 3.63989 13.5944L4.266 9.94382C4.28552 9.83002 4.29528 9.77311 4.28868 9.71865C4.28283 9.67043 4.26767 9.62381 4.24404 9.58137C4.21735 9.53344 4.17599 9.49315 4.09328 9.41258L1.43976 6.82806C1.16008 6.55566 1.02025 6.41946 1.00323 6.2906C0.988426 6.17849 1.025 6.06569 1.10277 5.9836C1.19216 5.88925 1.38531 5.86101 1.77162 5.80455L5.44007 5.26835C5.55415 5.25168 5.6112 5.24334 5.66087 5.22024C5.70486 5.19978 5.74446 5.17099 5.77747 5.13545C5.81477 5.09532 5.84028 5.04362 5.89132 4.94023L7.53132 1.61776Z" fill="#FFBB00" stroke="#FFBB00" stroke-width="1.5" stroke-linecap="round" stroke-linejoin="round"/>
</svg>
