<svg width="18" height="21" viewBox="0 0 18 21" fill="none" xmlns="http://www.w3.org/2000/svg">
<g id="android">
<path fill-rule="evenodd" clip-rule="evenodd" d="M6.43038 1.34629C7.19075 0.9216 8.06702 0.679565 8.99983 0.679565C9.93263 0.679565 10.8089 0.9216 11.5693 1.34629L12.1256 0.789964C12.2728 0.642766 12.5115 0.642766 12.6587 0.789964C12.8059 0.937161 12.8059 1.17582 12.6587 1.32301L12.2121 1.76959C13.4675 2.73423 14.2768 4.25086 14.2768 5.95649H3.7229C3.7229 4.25086 4.53212 2.73423 5.78757 1.76959L5.34099 1.32301C5.1938 1.17582 5.1938 0.937161 5.34099 0.789964C5.48819 0.642766 5.72685 0.642766 5.87404 0.789964L6.43038 1.34629ZM7.49214 3.69495C7.49214 4.11129 7.15463 4.4488 6.73829 4.4488C6.32195 4.4488 5.98444 4.11129 5.98444 3.69495C5.98444 3.27861 6.32195 2.9411 6.73829 2.9411C7.15463 2.9411 7.49214 3.27861 7.49214 3.69495ZM11.2614 4.4488C11.6777 4.4488 12.0152 4.11129 12.0152 3.69495C12.0152 3.27861 11.6777 2.9411 11.2614 2.9411C10.845 2.9411 10.5075 3.27861 10.5075 3.69495C10.5075 4.11129 10.845 4.4488 11.2614 4.4488Z" fill="#ACB5BD"/>
<path d="M0.70752 7.8411C0.70752 7.2166 1.21378 6.71033 1.83829 6.71033C2.4628 6.71033 2.96906 7.2166 2.96906 7.8411V12.3642C2.96906 12.9887 2.4628 13.4949 1.83829 13.4949C1.21378 13.4949 0.70752 12.9887 0.70752 12.3642V7.8411Z" fill="#ACB5BD"/>
<path d="M5.98444 16.5103V19.1488C5.98444 19.7733 6.49071 20.2796 7.11521 20.2796C7.73972 20.2796 8.24598 19.7733 8.24598 19.1488V16.5103H9.75367V19.1488C9.75367 19.7733 10.2599 20.2796 10.8844 20.2796C11.5089 20.2796 12.0152 19.7733 12.0152 19.1488V16.5103H12.7691C13.6017 16.5103 14.2768 15.8353 14.2768 15.0026V6.71033H3.7229V15.0026C3.7229 15.8353 4.39792 16.5103 5.2306 16.5103H5.98444Z" fill="#ACB5BD"/>
<path d="M15.0306 7.8411C15.0306 7.2166 15.5369 6.71033 16.1614 6.71033C16.7859 6.71033 17.2921 7.2166 17.2921 7.8411V12.3642C17.2921 12.9887 16.7859 13.4949 16.1614 13.4949C15.5369 13.4949 15.0306 12.9887 15.0306 12.3642V7.8411Z" fill="#ACB5BD"/>
</g>
</svg>
