<svg width="23" height="26" viewBox="0 0 23 26" fill="none" xmlns="http://www.w3.org/2000/svg">
<g id="android">
<path fill-rule="evenodd" clip-rule="evenodd" d="M8.21773 1.81104C9.18918 1.26845 10.3087 0.959229 11.5004 0.959229C12.6922 0.959229 13.8117 1.26845 14.7832 1.81104L15.4939 1.10027C15.682 0.912214 15.9869 0.912214 16.175 1.10027C16.363 1.28833 16.363 1.59323 16.175 1.78129L15.6044 2.35184C17.2084 3.58426 18.2422 5.52189 18.2422 7.70099H4.75869C4.75869 5.52189 5.79253 3.58426 7.39649 2.35184L6.82595 1.78129C6.63789 1.59323 6.63789 1.28833 6.82595 1.10027C7.01401 0.912214 7.31891 0.912214 7.50697 1.10027L8.21773 1.81104ZM9.57423 4.81166C9.57423 5.34357 9.14303 5.77477 8.61112 5.77477C8.07921 5.77477 7.64801 5.34357 7.64801 4.81166C7.64801 4.27975 8.07921 3.84856 8.61112 3.84856C9.14303 3.84856 9.57423 4.27975 9.57423 4.81166ZM14.3898 5.77477C14.9217 5.77477 15.3529 5.34357 15.3529 4.81166C15.3529 4.27975 14.9217 3.84856 14.3898 3.84856C13.8579 3.84856 13.4267 4.27975 13.4267 4.81166C13.4267 5.34357 13.8579 5.77477 14.3898 5.77477Z" fill="white"/>
<path d="M0.90625 10.1088C0.90625 9.3109 1.55305 8.6641 2.35091 8.6641C3.14878 8.6641 3.79558 9.3109 3.79558 10.1088V15.8874C3.79558 16.6853 3.14878 17.3321 2.35091 17.3321C1.55305 17.3321 0.90625 16.6853 0.90625 15.8874V10.1088Z" fill="white"/>
<path d="M7.64801 21.1845V24.5554C7.64801 25.3533 8.29481 26.0001 9.09268 26.0001C9.89054 26.0001 10.5373 25.3533 10.5373 24.5554V21.1845H12.4636V24.5554C12.4636 25.3533 13.1104 26.0001 13.9082 26.0001C14.7061 26.0001 15.3529 25.3533 15.3529 24.5554V21.1845H16.316C17.3798 21.1845 18.2422 20.3221 18.2422 19.2583V8.6641H4.75869V19.2583C4.75869 20.3221 5.62108 21.1845 6.6849 21.1845H7.64801Z" fill="white"/>
<path d="M19.2053 10.1088C19.2053 9.3109 19.8521 8.6641 20.65 8.6641C21.4478 8.6641 22.0946 9.3109 22.0946 10.1088V15.8874C22.0946 16.6853 21.4478 17.3321 20.65 17.3321C19.8521 17.3321 19.2053 16.6853 19.2053 15.8874V10.1088Z" fill="white"/>
</g>
</svg>
