<svg width="23" height="26" viewBox="0 0 23 26" fill="none" xmlns="http://www.w3.org/2000/svg">
<g id="android">
<path fill-rule="evenodd" clip-rule="evenodd" d="M8.21725 1.81098C9.18869 1.26839 10.3082 0.959167 11.5 0.959167C12.6917 0.959167 13.8112 1.26839 14.7827 1.81098L15.4934 1.10021C15.6815 0.912153 15.9864 0.912153 16.1745 1.10021C16.3625 1.28827 16.3625 1.59317 16.1745 1.78123L15.6039 2.35177C17.2079 3.5842 18.2417 5.52183 18.2417 7.70093H4.7582C4.7582 5.52183 5.79205 3.5842 7.396 2.35177L6.82546 1.78123C6.6374 1.59317 6.6374 1.28827 6.82546 1.10021C7.01352 0.912153 7.31842 0.912153 7.50648 1.10021L8.21725 1.81098ZM9.57374 4.8116C9.57374 5.34351 9.14254 5.77471 8.61063 5.77471C8.07872 5.77471 7.64752 5.34351 7.64752 4.8116C7.64752 4.27969 8.07872 3.84849 8.61063 3.84849C9.14254 3.84849 9.57374 4.27969 9.57374 4.8116ZM14.3893 5.77471C14.9212 5.77471 15.3524 5.34351 15.3524 4.8116C15.3524 4.27969 14.9212 3.84849 14.3893 3.84849C13.8574 3.84849 13.4262 4.27969 13.4262 4.8116C13.4262 5.34351 13.8574 5.77471 14.3893 5.77471Z" fill="#ACB5BD"/>
<path d="M0.905762 10.1087C0.905762 9.31084 1.55256 8.66404 2.35043 8.66404C3.14829 8.66404 3.79509 9.31084 3.79509 10.1087V15.8874C3.79509 16.6852 3.14829 17.332 2.35043 17.332C1.55256 17.332 0.905762 16.6852 0.905762 15.8874V10.1087Z" fill="#ACB5BD"/>
<path d="M7.64752 21.1845V24.5553C7.64752 25.3532 8.29432 26 9.09219 26C9.89005 26 10.5369 25.3532 10.5369 24.5553V21.1845H12.4631V24.5553C12.4631 25.3532 13.1099 26 13.9077 26C14.7056 26 15.3524 25.3532 15.3524 24.5553V21.1845H16.3155C17.3793 21.1845 18.2417 20.3221 18.2417 19.2582V8.66404H4.7582V19.2582C4.7582 20.3221 5.6206 21.1845 6.68442 21.1845H7.64752Z" fill="#ACB5BD"/>
<path d="M19.2048 10.1087C19.2048 9.31084 19.8516 8.66404 20.6495 8.66404C21.4474 8.66404 22.0942 9.31084 22.0942 10.1087V15.8874C22.0942 16.6852 21.4474 17.332 20.6495 17.332C19.8516 17.332 19.2048 16.6852 19.2048 15.8874V10.1087Z" fill="#ACB5BD"/>
</g>
</svg>
