<svg width="18" height="20" viewBox="0 0 18 20" fill="none" xmlns="http://www.w3.org/2000/svg">
<g id="android">
<path fill-rule="evenodd" clip-rule="evenodd" d="M6.42989 0.666729C7.19026 0.242034 8.06653 0 8.99934 0C9.93215 0 10.8084 0.242034 11.5688 0.666729L12.1251 0.110398C12.2723 -0.0367994 12.511 -0.0367994 12.6582 0.110398C12.8054 0.257596 12.8054 0.49625 12.6582 0.643448L12.2116 1.09002C13.467 2.05467 14.2763 3.57129 14.2763 5.27692H3.72242C3.72242 3.57129 4.53163 2.05467 5.78708 1.09002L5.34051 0.643448C5.19331 0.49625 5.19331 0.257596 5.34051 0.110398C5.4877 -0.0367994 5.72636 -0.0367994 5.87356 0.110398L6.42989 0.666729ZM7.49165 3.01538C7.49165 3.43172 7.15414 3.76923 6.7378 3.76923C6.32146 3.76923 5.98395 3.43172 5.98395 3.01538C5.98395 2.59905 6.32146 2.26154 6.7378 2.26154C7.15414 2.26154 7.49165 2.59905 7.49165 3.01538ZM11.2609 3.76923C11.6772 3.76923 12.0147 3.43172 12.0147 3.01538C12.0147 2.59905 11.6772 2.26154 11.2609 2.26154C10.8445 2.26154 10.507 2.59905 10.507 3.01538C10.507 3.43172 10.8445 3.76923 11.2609 3.76923Z" fill="white"/>
<path d="M0.707031 7.16154C0.707031 6.53703 1.21329 6.03077 1.8378 6.03077C2.46231 6.03077 2.96857 6.53703 2.96857 7.16154V11.6846C2.96857 12.3091 2.46231 12.8154 1.8378 12.8154C1.21329 12.8154 0.707031 12.3091 0.707031 11.6846V7.16154Z" fill="white"/>
<path d="M5.98395 15.8308V18.4692C5.98395 19.0937 6.49022 19.6 7.11472 19.6C7.73923 19.6 8.24549 19.0937 8.24549 18.4692V15.8308H9.75319V18.4692C9.75319 19.0937 10.2594 19.6 10.884 19.6C11.5085 19.6 12.0147 19.0937 12.0147 18.4692V15.8308H12.7686C13.6012 15.8308 14.2763 15.1558 14.2763 14.3231V6.03077H3.72242V14.3231C3.72242 15.1558 4.39743 15.8308 5.23011 15.8308H5.98395Z" fill="white"/>
<path d="M15.0301 7.16154C15.0301 6.53703 15.5364 6.03077 16.1609 6.03077C16.7854 6.03077 17.2916 6.53703 17.2916 7.16154V11.6846C17.2916 12.3091 16.7854 12.8154 16.1609 12.8154C15.5364 12.8154 15.0301 12.3091 15.0301 11.6846V7.16154Z" fill="white"/>
</g>
</svg>
