<svg width="21" height="27" viewBox="0 0 21 27" fill="none" xmlns="http://www.w3.org/2000/svg">
<g id="apple">
<path id="Vector" d="M14.247 4.6817C15.2136 3.6148 15.7545 2.15009 15.669 0.656311C14.3319 0.656311 12.7817 1.43825 11.8003 2.59064C11.0321 3.54356 10.2074 5.03733 10.506 6.53054C11.8858 6.70152 13.3796 5.83409 14.247 4.6817Z" fill="white"/>
<path id="Union" d="M20.2826 9.41571C20.0133 9.57635 17.4717 11.0926 17.4717 14.3259C17.4779 14.5266 17.4985 14.7169 17.5218 14.9044H17.5207C17.9419 18.271 20.9015 19.4746 20.9551 19.4746C20.945 19.4874 20.9228 19.5532 20.8858 19.663C20.7143 20.171 20.2245 21.6221 19.149 23.1301C18.1111 24.71 16.9588 26.3029 15.2091 26.3029C14.4068 26.3029 13.8525 26.0581 13.2783 25.8046C12.6614 25.5322 12.0217 25.2497 11.027 25.2497C9.92695 25.2497 9.24776 25.5493 8.61384 25.8289C8.05915 26.0735 7.53911 26.3029 6.8021 26.3029C5.05243 26.3029 3.81512 24.6245 2.72029 23.0595C1.32796 21.0539 0.147649 17.9313 0.0581665 14.9044C0.0573463 14.8735 0.0549451 14.8424 0.0525499 14.8112C0.0499525 14.7774 0.0473542 14.7436 0.0467612 14.7101C0.017695 13.0744 0.331154 11.4666 1.12734 10.1011C2.25066 8.19468 4.2568 6.90037 6.44703 6.85763C7.40512 6.82542 8.30304 7.20548 9.08779 7.53763C9.67781 7.78736 10.2039 8.01002 10.6434 8.01002C11.0432 8.01002 11.5848 7.81874 12.2266 7.59204C13.1602 7.2623 14.3059 6.85763 15.5362 6.85763C16.4321 6.8582 18.8224 7.12834 20.3019 9.40406C20.2982 9.4064 20.2917 9.41028 20.2826 9.41571Z" fill="white"/>
</g>
</svg>
