<svg width="21" height="27" viewBox="0 0 21 27" fill="none" xmlns="http://www.w3.org/2000/svg">
<g id="apple">
<path id="Vector" d="M14.247 4.68167C15.2136 3.61477 15.7545 2.15006 15.669 0.656281C14.3319 0.656281 12.7817 1.43822 11.8003 2.59061C11.0321 3.54353 10.2074 5.0373 10.506 6.53051C11.8858 6.70149 13.3796 5.83406 14.247 4.68167Z" fill="#ACB5BD"/>
<path id="Union" d="M20.2826 9.41568C20.0133 9.57632 17.4717 11.0925 17.4717 14.3259C17.4779 14.5265 17.4985 14.7169 17.5218 14.9044H17.5207C17.9419 18.2709 20.9015 19.4746 20.9551 19.4746C20.945 19.4874 20.9228 19.5531 20.8858 19.6629C20.7143 20.171 20.2245 21.622 19.149 23.1301C18.1111 24.7099 16.9588 26.3029 15.2091 26.3029C14.4068 26.3029 13.8525 26.0581 13.2783 25.8046C12.6614 25.5322 12.0217 25.2497 11.027 25.2497C9.92695 25.2497 9.24776 25.5492 8.61384 25.8288C8.05914 26.0735 7.53911 26.3029 6.8021 26.3029C5.05243 26.3029 3.81512 24.6245 2.72029 23.0594C1.32796 21.0539 0.147649 17.9313 0.0581665 14.9044C0.0573463 14.8735 0.0549451 14.8423 0.0525499 14.8112C0.0499525 14.7774 0.0473542 14.7435 0.0467612 14.71C0.017695 13.0744 0.331154 11.4666 1.12734 10.101C2.25066 8.19464 4.2568 6.90034 6.44703 6.8576C7.40512 6.82539 8.30304 7.20545 9.08778 7.5376C9.6778 7.78733 10.2039 8.00999 10.6434 8.00999C11.0432 8.00999 11.5848 7.81871 12.2266 7.592C13.1602 7.26227 14.3059 6.8576 15.5362 6.8576C16.4321 6.85817 18.8224 7.12831 20.3019 9.40403C20.2982 9.40637 20.2917 9.41025 20.2826 9.41568Z" fill="#ACB5BD"/>
</g>
</svg>
