<svg width="18" height="21" viewBox="0 0 18 21" fill="none" xmlns="http://www.w3.org/2000/svg">
<g id="apple">
<path id="Vector" d="M12.0399 3.26468C12.8239 2.3994 13.2625 1.21149 13.1932 0C12.1088 0 10.8516 0.63417 10.0556 1.56879C9.43253 2.34162 8.76369 3.55311 9.00589 4.76414C10.1249 4.9028 11.3364 4.1993 12.0399 3.26468Z" fill="white"/>
<path id="Union" d="M16.9347 7.10405C16.7163 7.23433 14.655 8.46401 14.655 11.0864C14.6601 11.2491 14.6767 11.4034 14.6957 11.5555H14.6948C15.0363 14.2859 17.4367 15.2621 17.4801 15.2621C17.472 15.2724 17.454 15.3258 17.4239 15.4148C17.2848 15.8269 16.8876 17.0037 16.0153 18.2268C15.1736 19.5081 14.239 20.8 12.82 20.8C12.1693 20.8 11.7197 20.6014 11.254 20.3958C10.7538 20.1749 10.2349 19.9458 9.42818 19.9458C8.53604 19.9458 7.9852 20.1887 7.47108 20.4155C7.02121 20.6139 6.59944 20.8 6.00172 20.8C4.58269 20.8 3.5792 19.4387 2.69127 18.1695C1.56206 16.5429 0.604798 14.0104 0.532226 11.5555C0.531561 11.5305 0.529613 11.5052 0.527671 11.4799C0.525564 11.4525 0.523457 11.4251 0.522976 11.3979C0.499403 10.0713 0.753626 8.76739 1.39935 7.6599C2.31039 6.11376 3.93742 5.06405 5.71374 5.02939C6.49078 5.00326 7.21901 5.3115 7.85546 5.58088C8.33398 5.78342 8.76061 5.964 9.1171 5.964C9.44138 5.964 9.88059 5.80887 10.4011 5.62501C11.1583 5.35758 12.0874 5.02939 13.0853 5.02939C13.8119 5.02985 15.7505 5.24894 16.9504 7.0946C16.9474 7.0965 16.9421 7.09965 16.9347 7.10405Z" fill="white"/>
</g>
</svg>
