<svg width="17" height="17" viewBox="0 0 17 17" fill="none" xmlns="http://www.w3.org/2000/svg">
<g id="Group 1">
<path id="Icon" d="M11.5286 11.4878V13.5935C11.5286 14.4359 11.5286 14.8571 11.3646 15.1788C11.2204 15.4618 10.9904 15.6919 10.7073 15.8361C10.3856 16.0001 9.96442 16.0001 9.12205 16.0001H3.40653C2.56417 16.0001 2.14298 16.0001 1.82124 15.8361C1.53823 15.6919 1.30814 15.4618 1.16394 15.1788C1 14.8571 1 14.4359 1 13.5935V7.87801C1 7.03565 1 6.61446 1.16394 6.29272C1.30814 6.00971 1.53823 5.77961 1.82124 5.63541C2.14298 5.47148 2.56417 5.47148 3.40653 5.47148H5.51225M7.91878 0.959229H13.6343C14.4767 0.959229 14.8978 0.959228 15.2196 1.12316C15.5026 1.26736 15.7327 1.49746 15.8769 1.78047C16.0408 2.10221 16.0408 2.5234 16.0408 3.36576V9.08128C16.0408 9.92364 16.0408 10.3448 15.8769 10.6666C15.7327 10.9496 15.5026 11.1797 15.2196 11.3239C14.8978 11.4878 14.4767 11.4878 13.6343 11.4878H7.91878C7.07642 11.4878 6.65523 11.4878 6.33349 11.3239C6.05048 11.1797 5.82039 10.9496 5.67619 10.6666C5.51225 10.3448 5.51225 9.92364 5.51225 9.08128V3.36576C5.51225 2.5234 5.51225 2.10221 5.67619 1.78047C5.82039 1.49746 6.05048 1.26736 6.33349 1.12316C6.65523 0.959228 7.07642 0.959229 7.91878 0.959229Z" stroke="white" stroke-width="1.50408" stroke-linecap="round" stroke-linejoin="round"/>
<path id="Icon_2" d="M8.5 6.50003L10.0041 8.00411L13.3883 4.61993" stroke="white" stroke-width="1.50408" stroke-linecap="round" stroke-linejoin="round"/>
</g>
</svg>
