<svg width="17" height="18" viewBox="0 0 17 18" fill="none" xmlns="http://www.w3.org/2000/svg">
<path id="Icon" d="M11.5 12V14.1C11.5 14.9401 11.5 15.3601 11.3365 15.681C11.1927 15.9632 10.9632 16.1927 10.681 16.3365C10.3601 16.5 9.94008 16.5 9.1 16.5H3.4C2.55992 16.5 2.13988 16.5 1.81901 16.3365C1.53677 16.1927 1.3073 15.9632 1.16349 15.681C1 15.3601 1 14.9401 1 14.1V8.4C1 7.55992 1 7.13988 1.16349 6.81901C1.3073 6.53677 1.53677 6.3073 1.81901 6.16349C2.13988 6 2.55992 6 3.4 6H5.5M7.9 12H13.6C14.4401 12 14.8601 12 15.181 11.8365C15.4632 11.6927 15.6927 11.4632 15.8365 11.181C16 10.8601 16 10.4401 16 9.6V3.9C16 3.05992 16 2.63988 15.8365 2.31901C15.6927 2.03677 15.4632 1.8073 15.181 1.66349C14.8601 1.5 14.4401 1.5 13.6 1.5H7.9C7.05992 1.5 6.63988 1.5 6.31901 1.66349C6.03677 1.8073 5.8073 2.03677 5.66349 2.31901C5.5 2.63988 5.5 3.05992 5.5 3.9V9.6C5.5 10.4401 5.5 10.8601 5.66349 11.181C5.8073 11.4632 6.03677 11.6927 6.31901 11.8365C6.63988 12 7.05992 12 7.9 12Z" stroke="#086FDE" stroke-width="1.5" stroke-linecap="round" stroke-linejoin="round"/>
</svg>
