<svg width="17" height="17" viewBox="0 0 17 17" fill="none" xmlns="http://www.w3.org/2000/svg">
<path id="Icon" d="M11.5 11.3591V13.4591C11.5 14.2992 11.5 14.7192 11.3365 15.0401C11.1927 15.3224 10.9632 15.5518 10.681 15.6956C10.3601 15.8591 9.94008 15.8591 9.1 15.8591H3.4C2.55992 15.8591 2.13988 15.8591 1.81901 15.6956C1.53677 15.5518 1.3073 15.3224 1.16349 15.0401C1 14.7192 1 14.2992 1 13.4591V7.75913C1 6.91905 1 6.49901 1.16349 6.17815C1.3073 5.8959 1.53677 5.66643 1.81901 5.52262C2.13988 5.35913 2.55992 5.35913 3.4 5.35913H5.5M7.9 11.3591H13.6C14.4401 11.3591 14.8601 11.3591 15.181 11.1956C15.4632 11.0518 15.6927 10.8224 15.8365 10.5401C16 10.2192 16 9.79921 16 8.95913V3.25913C16 2.41905 16 1.99901 15.8365 1.67815C15.6927 1.3959 15.4632 1.16643 15.181 1.02262C14.8601 0.859131 14.4401 0.859131 13.6 0.859131H7.9C7.05992 0.859131 6.63988 0.859131 6.31901 1.02262C6.03677 1.16643 5.8073 1.3959 5.66349 1.67815C5.5 1.99901 5.5 2.41905 5.5 3.25913V8.95913C5.5 9.79921 5.5 10.2192 5.66349 10.5401C5.8073 10.8224 6.03677 11.0518 6.31901 11.1956C6.63988 11.3591 7.05992 11.3591 7.9 11.3591Z" stroke="white" stroke-width="1.5" stroke-linecap="round" stroke-linejoin="round"/>
</svg>
