<svg width="17" height="17" viewBox="0 0 17 17" fill="none" xmlns="http://www.w3.org/2000/svg">
<g id="Group 1">
<path id="Icon" d="M11.5286 11.4878V13.5935C11.5286 14.4358 11.5286 14.857 11.3646 15.1788C11.2204 15.4618 10.9904 15.6919 10.7073 15.8361C10.3856 16 9.96442 16 9.12205 16H3.40653C2.56417 16 2.14298 16 1.82124 15.8361C1.53823 15.6919 1.30814 15.4618 1.16394 15.1788C1 14.857 1 14.4358 1 13.5935V7.87795C1 7.03558 1 6.6144 1.16394 6.29266C1.30814 6.00965 1.53823 5.77955 1.82124 5.63535C2.14298 5.47142 2.56417 5.47142 3.40653 5.47142H5.51225M7.91878 0.959167H13.6343C14.4767 0.959167 14.8978 0.959167 15.2196 1.1231C15.5026 1.2673 15.7327 1.4974 15.8769 1.78041C16.0408 2.10215 16.0408 2.52334 16.0408 3.3657V9.08122C16.0408 9.92358 16.0408 10.3448 15.8769 10.6665C15.7327 10.9495 15.5026 11.1796 15.2196 11.3238C14.8978 11.4878 14.4767 11.4878 13.6343 11.4878H7.91878C7.07642 11.4878 6.65523 11.4878 6.33349 11.3238C6.05048 11.1796 5.82039 10.9495 5.67619 10.6665C5.51225 10.3448 5.51225 9.92358 5.51225 9.08122V3.3657C5.51225 2.52334 5.51225 2.10215 5.67619 1.78041C5.82039 1.4974 6.05048 1.2673 6.33349 1.1231C6.65523 0.959167 7.07642 0.959167 7.91878 0.959167Z" stroke="#086FDE" stroke-width="1.50408" stroke-linecap="round" stroke-linejoin="round"/>
<path id="Icon_2" d="M8.5 6.5L10.0041 8.00408L13.3883 4.6199" stroke="#086FDE" stroke-width="1.50408" stroke-linecap="round" stroke-linejoin="round"/>
</g>
</svg>
