<svg width="22" height="23" viewBox="0 0 22 23" fill="none" xmlns="http://www.w3.org/2000/svg">
<path id="Icon" d="M11 5.4397V21.4397M11 5.4397H7.46429C6.94332 5.4397 6.4437 5.22898 6.07533 4.85391C5.70695 4.47884 5.5 3.97013 5.5 3.4397C5.5 2.90926 5.70695 2.40056 6.07533 2.02548C6.4437 1.65041 6.94332 1.4397 7.46429 1.4397C10.2143 1.4397 11 5.4397 11 5.4397ZM11 5.4397H14.5357C15.0567 5.4397 15.5563 5.22898 15.9247 4.85391C16.293 4.47884 16.5 3.97013 16.5 3.4397C16.5 2.90926 16.293 2.40056 15.9247 2.02548C15.5563 1.65041 15.0567 1.4397 14.5357 1.4397C11.7857 1.4397 11 5.4397 11 5.4397ZM19 10.4397V18.2397C19 19.3598 19 19.9199 18.782 20.3477C18.5903 20.724 18.2843 21.03 17.908 21.2217C17.4802 21.4397 16.9201 21.4397 15.8 21.4397L6.2 21.4397C5.07989 21.4397 4.51984 21.4397 4.09202 21.2217C3.71569 21.03 3.40973 20.724 3.21799 20.3477C3 19.9199 3 19.3598 3 18.2397V10.4397M1 7.0397L1 8.8397C1 9.39975 1 9.67978 1.10899 9.89369C1.20487 10.0818 1.35785 10.2348 1.54601 10.3307C1.75992 10.4397 2.03995 10.4397 2.6 10.4397L19.4 10.4397C19.9601 10.4397 20.2401 10.4397 20.454 10.3307C20.6422 10.2348 20.7951 10.0819 20.891 9.89369C21 9.67978 21 9.39975 21 8.8397V7.0397C21 6.47965 21 6.19962 20.891 5.98571C20.7951 5.79755 20.6422 5.64456 20.454 5.54869C20.2401 5.4397 19.9601 5.4397 19.4 5.4397L2.6 5.4397C2.03995 5.4397 1.75992 5.4397 1.54601 5.54869C1.35785 5.64456 1.20487 5.79754 1.10899 5.98571C1 6.19962 1 6.47964 1 7.0397Z" stroke="#24E37C" stroke-width="2" stroke-linecap="round" stroke-linejoin="round"/>
</svg>
