<svg width="16" height="16" viewBox="0 0 16 16" fill="none" xmlns="http://www.w3.org/2000/svg">
<path id="Icon" d="M14.75 6.10913L14.75 1.60913M14.75 1.60913H10.25M14.75 1.60913L8.75 7.60913M6.5 3.10913H4.85C3.58988 3.10913 2.95982 3.10913 2.47852 3.35437C2.05516 3.57008 1.71095 3.91429 1.49524 4.33765C1.25 4.81895 1.25 5.44901 1.25 6.70913V11.5091C1.25 12.7692 1.25 13.3993 1.49524 13.8806C1.71095 14.304 2.05516 14.6482 2.47852 14.8639C2.95982 15.1091 3.58988 15.1091 4.85 15.1091H9.65C10.9101 15.1091 11.5402 15.1091 12.0215 14.8639C12.4448 14.6482 12.789 14.304 13.0048 13.8806C13.25 13.3993 13.25 12.7692 13.25 11.5091V9.85913" stroke="black" stroke-width="1.8" stroke-linecap="round" stroke-linejoin="round"/>
</svg>
