<svg width="17" height="17" viewBox="0 0 17 17" fill="none" xmlns="http://www.w3.org/2000/svg">
<path id="Icon" d="M15.25 6.22958L15.25 1.72958M15.25 1.72958H10.75M15.25 1.72958L9.25 7.72958M7 3.22958H5.35C4.08988 3.22958 3.45982 3.22958 2.97852 3.47482C2.55516 3.69053 2.21095 4.03474 1.99524 4.45811C1.75 4.93941 1.75 5.56947 1.75 6.82958V11.6296C1.75 12.8897 1.75 13.5198 1.99524 14.0011C2.21095 14.4244 2.55516 14.7686 2.97852 14.9843C3.45982 15.2296 4.08988 15.2296 5.35 15.2296H10.15C11.4101 15.2296 12.0402 15.2296 12.5215 14.9843C12.9448 14.7686 13.289 14.4244 13.5048 14.0011C13.75 13.5198 13.75 12.8897 13.75 11.6296V9.97958" stroke="#ACB5BD" stroke-width="1.8" stroke-linecap="round" stroke-linejoin="round"/>
</svg>
