<svg width="39" height="36" viewBox="0 0 39 36" fill="none" xmlns="http://www.w3.org/2000/svg">
<path d="M12.412 6.24799H17.762C16.1927 8.45933 14.9443 10.8847 14.017 13.524C13.161 16.1633 12.7687 18.4103 12.84 20.265L11.984 18.446C13.6247 18.446 15.0157 19.0167 16.157 20.158C17.2983 21.228 17.869 22.5833 17.869 24.224C17.869 25.7933 17.2983 27.1843 16.157 28.397C15.087 29.5383 13.7673 30.109 12.198 30.109C10.4147 30.109 8.91667 29.467 7.704 28.183C6.49133 26.8277 5.885 25.1513 5.885 23.154C5.885 21.442 6.17033 19.5873 6.741 17.59C7.383 15.5213 8.20333 13.4883 9.202 11.491C10.2007 9.49366 11.2707 7.746 12.412 6.24799ZM27.392 6.24799H32.742C31.1727 8.45933 29.9243 10.8847 28.997 13.524C28.141 16.1633 27.7487 18.4103 27.82 20.265L26.964 18.446C28.6047 18.446 29.9957 19.0167 31.137 20.158C32.2783 21.228 32.849 22.5833 32.849 24.224C32.849 25.7933 32.2783 27.1843 31.137 28.397C30.067 29.5383 28.7473 30.109 27.178 30.109C25.3947 30.109 23.8967 29.467 22.684 28.183C21.4713 26.8277 20.865 25.1513 20.865 23.154C20.865 21.442 21.1503 19.5873 21.721 17.59C22.363 15.5213 23.1833 13.4883 24.182 11.491C25.1807 9.49366 26.2507 7.746 27.392 6.24799Z" fill="#086FDE"/>
</svg>
