<svg width="13" height="12" viewBox="0 0 13 12" fill="none" xmlns="http://www.w3.org/2000/svg">
<path d="M6.31451 1.46332C6.44416 1.20067 6.50898 1.06934 6.59698 1.02738C6.67355 0.990873 6.7625 0.990873 6.83907 1.02738C6.92707 1.06934 6.9919 1.20067 7.12155 1.46332L8.35155 3.95518C8.38983 4.03272 8.40896 4.07149 8.43693 4.10159C8.4617 4.12824 8.49139 4.14984 8.52438 4.16518C8.56164 4.1825 8.60442 4.18876 8.68999 4.20126L11.4413 4.60341C11.7311 4.64576 11.8759 4.66693 11.943 4.7377C12.0013 4.79927 12.0287 4.88387 12.0176 4.96795C12.0049 5.06459 11.9 5.16674 11.6902 5.37104L9.70008 7.30944C9.63804 7.36986 9.60702 7.40008 9.58701 7.43603C9.56929 7.46785 9.55792 7.50282 9.55353 7.53899C9.54858 7.57983 9.5559 7.62251 9.57054 7.70787L10.0401 10.4458C10.0896 10.7345 10.1144 10.8789 10.0679 10.9646C10.0274 11.0392 9.9554 11.0914 9.87199 11.1069C9.77612 11.1247 9.64646 11.0565 9.38714 10.9201L6.92748 9.62661C6.85084 9.58631 6.81252 9.56615 6.77215 9.55824C6.73641 9.55123 6.69965 9.55123 6.6639 9.55824C6.62353 9.56615 6.58521 9.58631 6.50857 9.62661L4.04891 10.9201C3.7896 11.0565 3.65994 11.1247 3.56406 11.1069C3.48065 11.0914 3.40867 11.0392 3.36818 10.9646C3.32164 10.8789 3.34641 10.7345 3.39593 10.4458L3.86552 7.70787C3.88016 7.62251 3.88748 7.57983 3.88252 7.53899C3.87814 7.50282 3.86677 7.46785 3.84905 7.43603C3.82903 7.40008 3.79801 7.36986 3.73597 7.30944L1.74583 5.37104C1.53608 5.16674 1.4312 5.06459 1.41844 4.96795C1.40733 4.88387 1.43477 4.79927 1.4931 4.7377C1.56014 4.66693 1.705 4.64576 1.99473 4.60341L4.74607 4.20126C4.83163 4.18876 4.87441 4.1825 4.91167 4.16518C4.94466 4.14984 4.97436 4.12824 4.99912 4.10159C5.02709 4.07149 5.04623 4.03272 5.0845 3.95518L6.31451 1.46332Z" stroke="#FFBB00" stroke-width="1.125" stroke-linecap="round" stroke-linejoin="round"/>
</svg>
