<svg width="17" height="16" viewBox="0 0 17 16" fill="none" xmlns="http://www.w3.org/2000/svg">
<path id="Icon" d="M8.08601 1.61776C8.25888 1.26755 8.34531 1.09245 8.46264 1.03651C8.56473 0.987831 8.68334 0.987831 8.78543 1.03651C8.90276 1.09245 8.9892 1.26755 9.16206 1.61776L10.8021 4.94023C10.8531 5.04362 10.8786 5.09532 10.9159 5.13545C10.9489 5.17099 10.9885 5.19978 11.0325 5.22024C11.0822 5.24334 11.1392 5.25168 11.2533 5.26835L14.9218 5.80455C15.3081 5.86101 15.5012 5.88925 15.5906 5.9836C15.6684 6.06569 15.705 6.17849 15.6902 6.2906C15.6731 6.41945 15.5333 6.55566 15.2536 6.82806L12.6001 9.41258C12.5174 9.49315 12.476 9.53344 12.4493 9.58137C12.4257 9.62381 12.4106 9.67043 12.4047 9.71865C12.3981 9.77311 12.4079 9.83002 12.4274 9.94383L13.0535 13.5944C13.1195 13.9794 13.1525 14.1719 13.0905 14.2861C13.0365 14.3855 12.9405 14.4553 12.8293 14.4759C12.7015 14.4996 12.5286 14.4087 12.1829 14.2268L8.90331 12.5021C8.80112 12.4484 8.75003 12.4215 8.6962 12.411C8.64855 12.4016 8.59953 12.4016 8.55187 12.411C8.49804 12.4215 8.44695 12.4484 8.34477 12.5021L5.06522 14.2268C4.71946 14.4087 4.54658 14.4996 4.41875 14.4759C4.30753 14.4553 4.21157 14.3855 4.15758 14.2861C4.09552 14.1719 4.12854 13.9794 4.19458 13.5944L4.82069 9.94383C4.84021 9.83002 4.84997 9.77311 4.84336 9.71865C4.83752 9.67043 4.82236 9.62381 4.79873 9.58137C4.77204 9.53344 4.73068 9.49315 4.64796 9.41258L1.99444 6.82806C1.71477 6.55566 1.57493 6.41945 1.55792 6.2906C1.54311 6.17849 1.57969 6.06569 1.65746 5.9836C1.74685 5.88925 1.94 5.86101 2.32631 5.80455L5.99476 5.26835C6.10884 5.25168 6.16588 5.24334 6.21556 5.22024C6.25955 5.19978 6.29914 5.17099 6.33216 5.13545C6.36945 5.09532 6.39497 5.04362 6.446 4.94023L8.08601 1.61776Z" stroke="#FFBB00" stroke-width="1.5" stroke-linecap="round" stroke-linejoin="round"/>
</svg>
