<svg width="13" height="12" viewBox="0 0 13 12" fill="none" xmlns="http://www.w3.org/2000/svg">
<g id="Icon">
<path d="M4.04891 11.0297L6.50857 9.73623C6.58521 9.69592 6.62353 9.67577 6.6639 9.66786C6.68202 9.6643 6.7004 9.66255 6.71878 9.6626V1.10962C6.67715 1.10951 6.6355 1.11864 6.59698 1.137C6.50898 1.17896 6.44416 1.31028 6.31451 1.57294L5.0845 4.06479C5.04623 4.14234 5.02709 4.18111 4.99912 4.21121C4.97436 4.23786 4.94466 4.25946 4.91167 4.2748C4.87441 4.29212 4.83163 4.29838 4.74607 4.31088L1.99473 4.71303C1.705 4.75538 1.56014 4.77655 1.4931 4.84732C1.43477 4.90889 1.40733 4.99349 1.41844 5.07757C1.4312 5.17421 1.53608 5.27636 1.74583 5.48066L3.73597 7.41906C3.79801 7.47948 3.82903 7.5097 3.84905 7.54564C3.86677 7.57747 3.87814 7.61244 3.88252 7.64861C3.88748 7.68945 3.88016 7.73213 3.86552 7.81749L3.39593 10.5554C3.34641 10.8442 3.32164 10.9885 3.36818 11.0742C3.40867 11.1488 3.48065 11.2011 3.56406 11.2165C3.65994 11.2343 3.7896 11.1661 4.04891 11.0297Z" fill="#FFBB00"/>
<path d="M6.71878 9.6626C6.73665 9.66265 6.75453 9.6644 6.77215 9.66786C6.81252 9.67577 6.85084 9.69593 6.92748 9.73623L9.38714 11.0297C9.64646 11.1661 9.77612 11.2343 9.87199 11.2165C9.9554 11.2011 10.0274 11.1488 10.0679 11.0742C10.1144 10.9885 10.0896 10.8442 10.0401 10.5554L9.57054 7.81749C9.5559 7.73213 9.54858 7.68945 9.55353 7.64861C9.55792 7.61244 9.56929 7.57747 9.58701 7.54564C9.60702 7.5097 9.63804 7.47948 9.70008 7.41906L11.6902 5.48066C11.9 5.27636 12.0049 5.17421 12.0176 5.07757C12.0287 4.99349 12.0013 4.90889 11.943 4.84732C11.8759 4.77655 11.7311 4.75538 11.4413 4.71303L8.68999 4.31088C8.60442 4.29838 8.56164 4.29212 8.52438 4.2748C8.49139 4.25946 8.4617 4.23786 8.43693 4.21121C8.40896 4.18111 8.38983 4.14234 8.35155 4.06479L7.12155 1.57294C6.9919 1.31028 6.92707 1.17896 6.83907 1.137C6.80102 1.11886 6.75991 1.10973 6.71878 1.10962M6.71878 9.6626C6.7004 9.66255 6.68202 9.6643 6.6639 9.66786C6.62353 9.67577 6.58521 9.69592 6.50857 9.73623L4.04891 11.0297C3.7896 11.1661 3.65994 11.2343 3.56406 11.2165C3.48065 11.2011 3.40867 11.1488 3.36818 11.0742C3.32164 10.9885 3.34641 10.8442 3.39593 10.5554L3.86552 7.81749C3.88016 7.73213 3.88748 7.68945 3.88252 7.64861C3.87814 7.61244 3.86677 7.57747 3.84905 7.54564C3.82903 7.5097 3.79801 7.47948 3.73597 7.41906L1.74583 5.48066C1.53608 5.27636 1.4312 5.17421 1.41844 5.07757C1.40733 4.99349 1.43477 4.90889 1.4931 4.84732C1.56014 4.77655 1.705 4.75538 1.99473 4.71303L4.74607 4.31088C4.83163 4.29838 4.87441 4.29212 4.91167 4.2748C4.94466 4.25946 4.97436 4.23786 4.99912 4.21121C5.02709 4.18111 5.04623 4.14234 5.0845 4.06479L6.31451 1.57294C6.44416 1.31028 6.50898 1.17896 6.59698 1.137C6.6355 1.11864 6.67715 1.10951 6.71878 1.10962M6.71878 9.6626V1.10962" stroke="#FFBB00" stroke-width="1.125" stroke-linecap="round" stroke-linejoin="round"/>
</g>
</svg>
