<svg width="13" height="12" viewBox="0 0 13 12" fill="none" xmlns="http://www.w3.org/2000/svg">
<path id="Icon" d="M5.89849 1.46332C6.02814 1.20067 6.09297 1.06934 6.18097 1.02738C6.25753 0.990873 6.34649 0.990873 6.42306 1.02738C6.51106 1.06934 6.57588 1.20067 6.70553 1.46332L7.93554 3.95518C7.97381 4.03272 7.99295 4.07149 8.02092 4.10159C8.04568 4.12824 8.07538 4.14984 8.10837 4.16518C8.14563 4.1825 8.18841 4.18876 8.27397 4.20126L11.0253 4.60341C11.315 4.64576 11.4599 4.66693 11.5269 4.7377C11.5853 4.79927 11.6127 4.88387 11.6016 4.96795C11.5888 5.06459 11.484 5.16674 11.2742 5.37104L9.28407 7.30944C9.22203 7.36986 9.19101 7.40008 9.17099 7.43603C9.15327 7.46785 9.1419 7.50282 9.13752 7.53899C9.13256 7.57983 9.13988 7.62251 9.15452 7.70787L9.6241 10.4458C9.67363 10.7345 9.6984 10.8789 9.65186 10.9646C9.61137 11.0392 9.53939 11.0914 9.45598 11.1069C9.3601 11.1247 9.23044 11.0565 8.97113 10.9201L6.51146 9.62661C6.43483 9.58631 6.39651 9.56615 6.35614 9.55824C6.32039 9.55123 6.28363 9.55123 6.24789 9.55824C6.20752 9.56615 6.1692 9.58631 6.09256 9.62661L3.6329 10.9201C3.37358 11.0565 3.24392 11.1247 3.14805 11.1069C3.06464 11.0914 2.99266 11.0392 2.95217 10.9646C2.90563 10.8789 2.93039 10.7345 2.97992 10.4458L3.4495 7.70787C3.46414 7.62251 3.47146 7.57983 3.46651 7.53899C3.46212 7.50282 3.45075 7.46785 3.43303 7.43603C3.41301 7.40008 3.382 7.36986 3.31996 7.30944L1.32982 5.37104C1.12006 5.16674 1.01519 5.06459 1.00242 4.96795C0.991319 4.88387 1.01875 4.79927 1.07708 4.7377C1.14412 4.66693 1.28899 4.64576 1.57871 4.60341L4.33005 4.20126C4.41562 4.18876 4.4584 4.1825 4.49566 4.16518C4.52864 4.14984 4.55834 4.12824 4.58311 4.10159C4.61107 4.07149 4.63021 4.03272 4.66849 3.95518L5.89849 1.46332Z" fill="#FFBB00" stroke="#FFBB00" stroke-width="1.125" stroke-linecap="round" stroke-linejoin="round"/>
</svg>
