<svg width="17" height="18" viewBox="0 0 17 18" fill="none" xmlns="http://www.w3.org/2000/svg">
<path id="Icon" d="M4.75 16.4796V8.22961M1 9.72961V14.9796C1 15.808 1.67157 16.4796 2.5 16.4796H12.5697C13.6802 16.4796 14.6247 15.6694 14.7935 14.5717L15.6012 9.32174C15.8109 7.95879 14.7564 6.72961 13.3774 6.72961H10.75C10.3358 6.72961 10 6.39383 10 5.97961V3.32899C10 2.30761 9.172 1.47961 8.15062 1.47961C7.907 1.47961 7.68623 1.62309 7.58729 1.84571L4.94795 7.78422C4.82758 8.05506 4.55899 8.22961 4.2626 8.22961H2.5C1.67157 8.22961 1 8.90119 1 9.72961Z" stroke="#24E37C" stroke-width="1.5" stroke-linecap="round" stroke-linejoin="round"/>
</svg>
