<svg width="17" height="17" viewBox="0 0 17 17" fill="none" xmlns="http://www.w3.org/2000/svg">
<path id="Icon" d="M4.75 15.9592V7.70917M1 9.20917V14.4592C1 15.2876 1.67157 15.9592 2.5 15.9592H12.5697C13.6802 15.9592 14.6247 15.1489 14.7935 14.0513L15.6012 8.8013C15.8109 7.43834 14.7564 6.20917 13.3774 6.20917H10.75C10.3358 6.20917 10 5.87338 10 5.45917V2.80855C10 1.78716 9.172 0.959167 8.15062 0.959167C7.907 0.959167 7.68623 1.10264 7.58729 1.32526L4.94795 7.26377C4.82758 7.53462 4.55899 7.70917 4.2626 7.70917H2.5C1.67157 7.70917 1 8.38074 1 9.20917Z" stroke="#3DBB42" stroke-width="1.5" stroke-linecap="round" stroke-linejoin="round"/>
</svg>
