<svg width="17" height="18" viewBox="0 0 17 18" fill="none" xmlns="http://www.w3.org/2000/svg">
<path id="Icon" d="M4.75 1.47961V9.72961M1 8.22961V2.97961C1 2.15119 1.67157 1.47961 2.5 1.47961H12.5697C13.6802 1.47961 14.6247 2.28986 14.7935 3.38748L15.6012 8.63749C15.8109 10.0004 14.7564 11.2296 13.3774 11.2296H10.75C10.3358 11.2296 10 11.5654 10 11.9796V14.6302C10 15.6516 9.172 16.4796 8.15062 16.4796C7.907 16.4796 7.68623 16.3361 7.58729 16.1135L4.94795 10.175C4.82758 9.90416 4.55899 9.72961 4.2626 9.72961H2.5C1.67157 9.72961 1 9.05804 1 8.22961Z" stroke="#FF5555" stroke-width="1.5" stroke-linecap="round" stroke-linejoin="round"/>
</svg>
